<svg width="39" height="31" viewBox="0 0 39 31" fill="none" xmlns="http://www.w3.org/2000/svg">
<g clip-path="url(#clip0_99_3873)">
<path d="M33.4003 0L5.59972 0C2.50932 0 0 2.50747 0 5.58836L0 25.4116C0 28.4925 2.50932 31 5.59972 31L33.4003 31C36.4907 31 39 28.4925 39 25.4116L39 5.58836C39 2.50747 36.4907 0 33.4003 0ZM35.7538 25.4116C35.7538 26.7075 34.702 27.7604 33.4003 27.7604L30.2937 27.7604C30.6735 27.0995 30.9721 26.2669 30.9721 25.3728C30.9721 24.3814 30.6053 23.3124 29.5762 22.3178C28.9952 21.7541 28.6998 21.171 28.6803 20.5457H30.3326C30.8553 20.5457 31.1799 19.9755 30.9072 19.5285L29.8132 17.7208L29.4886 17.1895L28.4433 15.4627C28.1804 15.0319 27.5539 15.0319 27.2942 15.4627L24.827 19.5285C24.5576 19.9755 24.879 20.5457 25.4016 20.5457H27.0572C27.0734 21.618 27.5409 22.6061 28.4466 23.4808C30.3748 25.3468 28.6219 27.3813 28.4173 27.6049C28.3719 27.6535 28.3329 27.7053 28.3037 27.7604H21.8535C22.2333 27.0995 22.532 26.2669 22.532 25.3728C22.532 24.3814 22.1651 23.3124 21.1361 22.3178C20.555 21.7541 20.2596 21.171 20.2401 20.5457H21.8925C22.4151 20.5457 22.7397 19.9755 22.467 19.5285L21.3731 17.7208L21.0484 17.1895L20.0032 15.4627C19.7402 15.0319 19.1137 15.0319 18.854 15.4627L16.3869 19.5285C16.1174 19.9755 16.4388 20.5457 16.9615 20.5457H18.617C18.6333 21.618 19.1007 22.6061 20.0064 23.4808C21.9347 25.3468 20.1817 27.3813 19.9772 27.6049C19.9317 27.6535 19.8928 27.7053 19.8636 27.7604H13.5594C13.9392 27.0995 14.2379 26.2669 14.2379 25.3728C14.2379 24.3814 13.8711 23.3124 12.842 22.3178C12.2609 21.7541 11.9655 21.171 11.9461 20.5457H13.5984C14.121 20.5457 14.4456 19.9755 14.173 19.5285L13.079 17.7208L12.7544 17.1895L11.7091 15.4627C11.4461 15.0319 10.8196 15.0319 10.5599 15.4627L8.09281 19.5285C7.82337 19.9755 8.14475 20.5457 8.66739 20.5457H10.323C10.3392 21.618 10.8066 22.6061 11.7123 23.4808C13.6406 25.3468 11.8876 27.3813 11.6831 27.6049C11.6377 27.6535 11.5987 27.7053 11.5695 27.7604L5.59972 27.7604C4.29799 27.7604 3.24621 26.7075 3.24621 25.4116L3.24621 5.58836C3.24621 4.29251 4.29799 3.23963 5.59972 3.23963L33.4003 3.23963C34.702 3.23963 35.7538 4.29251 35.7538 5.58836L35.7538 25.4116Z" fill="#FFFFFF"/>
</g>
<defs>
<clipPath id="clip0_99_3873">
<rect width="39" height="31" fill="#FFFFFF"/>
</clipPath>
</defs>
</svg>
