<svg width="49" height="31" viewBox="0 0 49 31" fill="none" xmlns="http://www.w3.org/2000/svg">
<g clip-path="url(#clip0_99_3875)">
<path d="M48.4844 11.0897C48.4638 11.0573 48.4432 11.0248 48.4157 10.9956C48.2885 10.8398 48.1579 10.6872 48.0272 10.5379C42.4342 4.10671 33.9501 0 24.4726 0C14.995 0 6.56595 4.08074 0.969487 10.4762L0.959174 10.4859C0.828544 10.6352 0.701352 10.7846 0.574159 10.9372C0.546658 10.9761 0.519157 11.0151 0.495094 11.054C-0.127117 12.028 -0.164931 13.2421 0.39884 14.2485L1.22731 15.7289L8.79354 29.2697C9.38825 30.3312 10.557 31 11.8324 31H37.7109C39.0172 31 40.2101 30.2988 40.791 29.195L47.7935 15.8555L48.6426 14.242C49.1685 13.2356 49.1101 12.0442 48.4844 11.0897ZM45.5624 12.8006L37.7109 27.7536H35.3389C35.7927 27.0653 36.1674 26.1628 36.1674 25.1824C36.1674 24.202 35.7789 23.1177 34.6892 22.1211C34.0739 21.5562 33.7611 20.9718 33.7404 20.3453H35.4902C36.0436 20.3453 36.3874 19.7739 36.0986 19.3259L34.9402 17.5144L34.5964 16.982L33.4895 15.2516C33.211 14.8199 32.5476 14.8199 32.2726 15.2516L29.66 19.3259C29.3746 19.7739 29.715 20.3453 30.2684 20.3453H32.0216C32.0388 21.4198 32.5338 22.41 33.4929 23.2865C35.5349 25.1565 33.6785 27.1952 33.462 27.4192C33.3657 27.5166 33.297 27.6335 33.2626 27.7536H26.4011C26.8549 27.0653 27.2296 26.1628 27.2296 25.1824C27.2296 24.202 26.8411 23.1177 25.7514 22.1211C25.136 21.5562 24.8232 20.9718 24.8026 20.3453H26.5523C27.1058 20.3453 27.4496 19.7739 27.1608 19.3259L26.0023 17.5144L25.6586 16.982L24.5516 15.2516C24.2732 14.8199 23.6097 14.8199 23.3347 15.2516L20.7221 19.3259C20.4368 19.7739 20.7771 20.3453 21.3306 20.3453H23.0838C23.101 21.4198 23.596 22.41 24.5551 23.2865C26.597 25.1565 24.7407 27.1952 24.5241 27.4192C24.4279 27.5166 24.3591 27.6335 24.3248 27.7536H17.6145C18.0683 27.0653 18.443 26.1628 18.443 25.1824C18.443 24.202 18.0545 23.1177 16.9648 22.1211C16.3495 21.5562 16.0366 20.9718 16.016 20.3453H17.7658C18.3192 20.3453 18.663 19.7739 18.3742 19.3259L17.2157 17.5144L16.872 16.982L15.7651 15.2516C15.4866 14.8199 14.8231 14.8199 14.5481 15.2516L11.9355 19.3259C11.6502 19.7739 11.9905 20.3453 12.544 20.3453H14.2972C14.3144 21.4198 14.8094 22.41 15.7685 23.2865C17.8104 25.1565 15.9541 27.1952 15.7376 27.4192C15.6413 27.5166 15.5725 27.6335 15.5382 27.7536H11.8324L3.43771 12.7324C4.44149 11.5605 5.55185 10.4762 6.75502 9.49251C11.499 5.60331 17.697 3.24641 24.4726 3.24641C31.2481 3.24641 37.4978 5.62279 42.252 9.54445C43.4517 10.5346 44.5587 11.6222 45.559 12.7974H45.5624V12.8006Z" fill="white"/>
</g>
<defs>
<clipPath id="clip0_99_3875">
<rect width="49" height="31" fill="white"/>
</clipPath>
</defs>
</svg>
