<svg width="36" height="32" viewBox="0 0 36 32" fill="none" xmlns="http://www.w3.org/2000/svg">
<g clip-path="url(#clip0_99_3882)">
<path d="M10.3829 20.0146L8.38492 19.5172L7.76736 19.3669L5.67691 18.8461C5.15842 18.7193 4.98009 18.0682 5.35657 17.6877L6.54545 16.4858C6.07981 16.0451 5.44904 15.8348 4.62343 15.8448C3.16705 15.8681 2.13338 15.3573 1.41675 14.6329C0.4062 13.6079 0.033023 12.1624 -1.47766e-06 11.2075C-0.0198162 10.7468 0.340151 10.3595 0.792586 10.3428C1.24832 10.3261 1.63141 10.6867 1.64792 11.1441C1.66113 11.4546 1.86588 14.2122 4.60031 14.1722C5.88166 14.1521 6.93184 14.5294 7.71452 15.3006L8.9067 14.0954C9.28318 13.7148 9.92386 13.8984 10.0527 14.4192L11.2085 19.1766C11.3307 19.6808 10.8816 20.1348 10.3829 20.0113V20.0146Z" fill="white" fill-opacity="0.5"/>
<path d="M32.7636 6.54356C34.551 6.54356 36 5.07873 36 3.27178C36 1.46483 34.551 0 32.7636 0C30.9762 0 29.5272 1.46483 29.5272 3.27178C29.5272 5.07873 30.9762 6.54356 32.7636 6.54356Z" fill="white" fill-opacity="0.5"/>
<path d="M15.2408 32C14.9667 32 14.686 31.9533 14.4119 31.8565C13.1239 31.3924 12.4469 29.9635 12.906 28.6581L16.1457 19.4304C16.542 18.2986 17.6813 17.6109 18.8537 17.7911L27.156 19.0731L29.9994 10.4196C30.4321 9.10757 31.829 8.39646 33.1302 8.83381C34.428 9.27116 35.1315 10.6867 34.6988 11.9988L31.1982 22.6587C30.8185 23.8172 29.6692 24.5317 28.4737 24.3447L20.1284 23.056L17.5723 30.3341C17.2124 31.359 16.258 32 15.2375 32H15.2408Z" fill="white" fill-opacity="0.5"/>
</g>
<defs>
<clipPath id="clip0_99_3882">
<rect width="36" height="32" fill="white"/>
</clipPath>
</defs>
</svg>
