<svg width="36" height="32" viewBox="0 0 36 32" fill="none" xmlns="http://www.w3.org/2000/svg">
<g clip-path="url(#clip0_99_3887)">
<path d="M24.9962 6.06955L23.236 7.14456L22.6944 7.47842L20.8517 8.60351C20.3959 8.88395 19.8147 8.55009 19.8147 8.01258V6.31326C19.1773 6.33329 18.5829 6.6371 18.0083 7.2347C16.9944 8.29302 15.9046 8.67028 14.894 8.67028C13.4608 8.67028 12.186 7.91577 11.4958 7.26475C11.159 6.95427 11.1425 6.42344 11.4529 6.08624C11.7633 5.74905 12.2851 5.72902 12.6187 6.04284C12.8465 6.25317 14.9205 8.05599 16.8227 6.07289C17.7143 5.14143 18.7216 4.66068 19.8147 4.64399V2.94133C19.8147 2.40382 20.3959 2.07331 20.8517 2.3504L24.9962 4.8877C25.4355 5.15479 25.4355 5.79913 24.9962 6.06955Z" fill="white" fill-opacity="0.5"/>
<path d="M32.7636 6.54356C34.551 6.54356 36 5.07873 36 3.27178C36 1.46483 34.551 0 32.7636 0C30.9762 0 29.5272 1.46483 29.5272 3.27178C29.5272 5.07873 30.9762 6.54356 32.7636 6.54356Z" fill="white" fill-opacity="0.5"/>
<path d="M15.2408 32C14.9667 32 14.686 31.9533 14.4119 31.8565C13.1239 31.3924 12.4469 29.9635 12.906 28.6581L16.1457 19.4304C16.542 18.2986 17.6813 17.6109 18.8537 17.7911L27.156 19.0731L29.9994 10.4196C30.4321 9.10757 31.829 8.39646 33.1302 8.83381C34.428 9.27116 35.1315 10.6867 34.6988 11.9988L31.1982 22.6587C30.8185 23.8172 29.6692 24.5317 28.4737 24.3447L20.1284 23.056L17.5723 30.3341C17.2124 31.359 16.258 32 15.2375 32H15.2408Z" fill="white" fill-opacity="0.5"/>
</g>
<defs>
<clipPath id="clip0_99_3887">
<rect width="36" height="32" fill="white"/>
</clipPath>
</defs>
</svg>
