<svg width="40" height="40" viewBox="0 0 40 40" fill="none" xmlns="http://www.w3.org/2000/svg">
<g clip-path="url(#clip0_62_222)">
<path d="M20 40C31.0457 40 40 31.0457 40 20C40 8.95431 31.0457 0 20 0C8.95431 0 0 8.95431 0 20C0 31.0457 8.95431 40 20 40Z" fill="#00A3FF"/>
<path d="M19.8288 33.2193C19.6827 33.2193 19.5324 33.19 19.3946 33.1316C18.9687 32.9562 18.6889 32.5387 18.6889 32.0794V22.7641L14.6012 26.8518C14.1545 27.2986 13.4321 27.2986 12.9896 26.8518C12.5428 26.4051 12.5428 25.6827 12.9896 25.2401L18.2171 20.0126L12.9896 14.785C12.5428 14.3383 12.5428 13.6159 12.9896 13.1733C13.4363 12.7266 14.1587 12.7266 14.6012 13.1733L18.6889 17.261V7.94577C18.6889 7.48648 18.9687 7.06894 19.3946 6.89358C19.8205 6.71821 20.3131 6.81425 20.6388 7.13992L26.6722 13.1733C27.119 13.6201 27.119 14.3424 26.6722 14.785L21.4447 20.0126L26.6722 25.2401C27.119 25.6869 27.119 26.4092 26.6722 26.8518L20.6388 32.8852C20.4217 33.1023 20.1294 33.2193 19.833 33.2193H19.8288ZM20.9687 22.7641V29.3236L24.2505 26.0418L20.9687 22.76V22.7641ZM20.9687 10.6973V17.2568L24.2505 13.975L20.9687 10.6932V10.6973Z" fill="white"/>
</g>
<defs>
<clipPath id="clip0_62_222">
<rect width="40" height="40" fill="white"/>
</clipPath>
</defs>
</svg>
