<svg width="62" height="32" viewBox="0 0 62 32" fill="none" xmlns="http://www.w3.org/2000/svg">
<g clip-path="url(#clip0_661_907)">
<path d="M34.7489 0.180389C34.2826 0.401619 33.8538 0.70113 33.4794 1.07552L31.08 3.47501C29.6301 4.92491 29.317 7.18826 30.3176 8.97511L30.6988 9.66263L29.9466 9.87365C27.9659 10.4318 26.5943 12.2425 26.5943 14.3016V17.695C26.5943 19.7541 27.9659 21.5648 29.9466 22.123L30.6988 22.334L30.3176 23.0147C29.7186 24.0868 29.5893 25.3291 29.8956 26.4625H24.4263C24.0519 29.5835 21.3939 32 18.1708 32C14.9478 32 12.2897 29.5835 11.9154 26.4625H3.30812C-0.0782781 26.4625 2.58209e-07 21.5546 2.58209e-07 21.5546C2.58209e-07 15.3057 8.73316 12.6748 14.0901 11.6469C16.4079 11.201 18.3989 9.79877 19.6922 7.82472C23.3576 2.22591 30.6954 0.629656 34.7489 0.180389Z" fill="white"/>
<path d="M61.1287 13.1478L58.7497 12.4773C58.3787 12.3718 58.0793 12.0996 57.9499 11.7388C57.807 11.3372 57.647 10.9458 57.4632 10.5646C57.2965 10.2174 57.3169 9.81238 57.5041 9.47543L58.7123 7.31419C58.9743 6.84791 58.8927 6.2625 58.5149 5.8813L56.1155 3.48522C55.8841 3.25378 55.5777 3.13465 55.268 3.13465C55.0672 3.13465 54.8664 3.1823 54.6826 3.28781L52.5249 4.49606C52.3411 4.59817 52.1403 4.64922 51.9361 4.64922C51.7659 4.64922 51.5957 4.61178 51.4358 4.53691C51.0546 4.35312 50.6632 4.19315 50.2616 4.0468C49.9008 3.92087 49.6252 3.62136 49.5231 3.25037L48.8526 0.871304C48.7062 0.353967 48.2366 0 47.6988 0H44.3056C43.7679 0 43.2982 0.353967 43.1519 0.871304L42.4814 3.25037C42.3759 3.62136 42.1036 3.92087 41.7429 4.0468C41.3413 4.19315 40.9499 4.35312 40.5687 4.53691C40.4087 4.61178 40.2386 4.64922 40.065 4.64922C39.8642 4.64922 39.66 4.59817 39.4796 4.49606L37.6077 3.45118L37.3184 3.28781C37.1346 3.1823 36.9338 3.13465 36.733 3.13465C36.4233 3.13465 36.117 3.25378 35.8856 3.48522L33.4862 5.8813C33.105 6.2625 33.0267 6.84791 33.2888 7.31419L34.497 9.47543C34.6842 9.81238 34.7012 10.2174 34.5378 10.5646C34.3541 10.9458 34.1941 11.3372 34.0511 11.7388C33.9218 12.0996 33.6223 12.3752 33.2513 12.4773L30.8724 13.1478C30.355 13.2942 29.9977 13.7639 29.9977 14.3016V17.695C29.9977 18.2327 30.355 18.7024 30.8724 18.8488L33.2513 19.5193C33.6223 19.6214 33.9218 19.897 34.0511 20.2578C34.1941 20.6594 34.3541 21.0508 34.5378 21.432C34.7012 21.7792 34.6842 22.1842 34.497 22.5212L33.2888 24.679C33.0267 25.1487 33.105 25.7307 33.4862 26.1119L35.8856 28.5114C36.117 28.7428 36.4233 28.8619 36.733 28.8619C36.9338 28.8619 37.1346 28.8143 37.3184 28.7088L39.4796 27.5005C39.66 27.3984 39.8642 27.3474 40.065 27.3474C40.2386 27.3474 40.4087 27.3848 40.5687 27.4597C40.9499 27.6435 41.3413 27.8034 41.7429 27.9498C42.1036 28.0757 42.3759 28.3752 42.4814 28.7462L43.1519 31.1253C43.2982 31.6426 43.7679 32 44.3056 32H47.6988C48.2366 32 48.7062 31.6426 48.8526 31.1253L49.5231 28.7462C49.6252 28.3752 49.9008 28.0757 50.2616 27.9498C50.6632 27.8069 51.0546 27.6435 51.4358 27.4597C51.5957 27.3848 51.7659 27.3474 51.9361 27.3474C52.1403 27.3474 52.3411 27.3984 52.5249 27.5005L54.6826 28.7088C54.8664 28.8109 55.0672 28.8619 55.268 28.8619C55.5777 28.8619 55.8841 28.7428 56.1155 28.5114L58.5149 26.1119C58.8927 25.7307 58.9743 25.1487 58.7123 24.679L57.5041 22.5212C57.3169 22.1842 57.2965 21.7792 57.4632 21.432C57.647 21.0508 57.807 20.6594 57.9499 20.2578C58.0793 19.897 58.3787 19.6248 58.7497 19.5193L61.1287 18.8488C61.646 18.7024 62 18.2327 62 17.695V14.3016C62 13.7639 61.646 13.2942 61.1287 13.1478ZM46.0005 23.0283C41.9981 23.0283 38.7751 19.6826 38.9793 15.6324C39.1597 12.0825 42.0628 9.16911 45.6091 8.97852C45.7419 8.97171 45.8712 8.96831 46.0005 8.96831C49.8804 8.9649 53.0286 12.1132 53.0286 16C53.0286 19.8868 49.8804 23.0283 46.0005 23.0283Z" fill="white"/>
</g>
<defs>
<clipPath id="clip0_661_907">
<rect width="62" height="32" fill="white"/>
</clipPath>
</defs>
</svg>
