<svg width="20" height="52" viewBox="0 0 20 52" fill="none" xmlns="http://www.w3.org/2000/svg">
<g clip-path="url(#clip0_661_898)">
<path d="M13.9282 32.9005V3.90783C13.9282 1.74781 12.1713 0 10 0C7.82873 0 6.07182 1.74781 6.07182 3.90783V32.9005C2.50276 34.4175 0 37.9461 0 42.0518C0 47.548 4.47514 52 10 52C15.5249 52 20 47.548 20 42.0518C20 37.9461 17.4972 34.4175 13.9282 32.9005ZM8.28177 3.90783C8.28177 2.96797 9.05525 2.1985 10 2.1985C10.9448 2.1985 11.7182 2.96797 11.7182 3.90783V20.6494H8.28177V3.90783Z" fill="white"/>
</g>
<defs>
<clipPath id="clip0_661_898">
<rect width="20" height="52" fill="white"/>
</clipPath>
</defs>
</svg>
