<svg width="91" height="67" viewBox="0 0 91 67" fill="none" xmlns="http://www.w3.org/2000/svg">
<g clip-path="url(#clip0_88_564)">
<path d="M24.8804 52.3798H61.0904C55.0643 61.2068 44.9317 67 33.4547 67C14.5404 67 -0.70208 51.2881 0.0269361 32.194C0.675694 14.9685 14.5872 0.87737 31.7826 0.0402052C44.0622 -0.555856 54.9908 5.48513 61.2777 14.8949C55.2984 15.8593 49.9278 19.2347 46.4432 24.1372H46.4232C40.5375 24.1372 35.2605 27.1108 32.1705 31.7922C25.2683 32.6428 19.9043 38.5498 19.9043 45.6824V47.397C19.9043 50.1496 22.1315 52.3798 24.8804 52.3798Z" fill="white"/>
<path d="M91 45.6823H26.5924C26.5924 41.6506 29.8563 38.3823 33.8826 38.3823C34.7387 38.3823 35.5546 38.5296 36.3171 38.7975C37.414 34.2299 41.5205 30.8344 46.423 30.8344C47.6938 30.8344 48.911 31.0621 50.0346 31.4773C52.2886 25.5904 57.9602 21.3845 64.6217 21.3175C64.6819 21.3108 64.7421 21.3108 64.8022 21.3108C72.9017 21.3108 79.5832 27.4187 80.4995 35.2814H80.6132C86.3517 35.2814 91 39.936 91 45.6823Z" fill="white"/>
</g>
<defs>
<clipPath id="clip0_88_564">
<rect width="91" height="67" fill="white"/>
</clipPath>
</defs>
</svg>
