<svg width="48" height="48" viewBox="0 0 48 48" fill="none" xmlns="http://www.w3.org/2000/svg">
<path d="M24 0C10.7474 0 0 10.7424 0 24C0 37.2576 10.7474 48 24 48C37.2526 48 48 37.2526 48 24C48 10.7474 37.2526 0 24 0ZM38.7106 25.6835L28.4242 31.9065C27.2919 32.5879 25.8489 31.7762 25.8489 30.4534V26.1595H8.15699C7.09478 26.1595 6.22797 25.2977 6.22797 24.2305C6.22797 23.6944 6.44342 23.2134 6.79415 22.8676C7.14488 22.5169 7.62589 22.3015 8.15699 22.3015H25.8489V18.0075C25.8489 16.6898 27.2919 15.8731 28.4242 16.5595L38.7106 22.7825C39.8029 23.4388 39.8029 25.0221 38.7106 25.6835Z" fill="white"/>
</svg>
