<svg width="76" height="19" viewBox="0 0 76 19" fill="none" xmlns="http://www.w3.org/2000/svg">
<g clip-path="url(#clip0_102_4663)">
<path d="M0.986913 7.7573L13.3414 0.294305C14.7014 -0.522898 16.4345 0.450537 16.4345 2.03687L16.4345 7.18646L37.6832 7.18646C38.9589 7.18646 40 8.21999 40 9.49987C40 10.1428 39.7412 10.7197 39.32 11.1343C38.8988 11.5549 38.321 11.8133 37.6832 11.8133L16.4345 11.8133L16.4345 16.9629C16.4345 18.5432 14.7014 19.5226 13.3414 18.6994L0.986912 11.2364C-0.324958 10.4493 -0.324958 8.55047 0.986913 7.7573Z" fill="white"/>
</g>
<g clip-path="url(#clip1_102_4663)">
<path d="M75.0131 11.2427L62.6586 18.7057C61.2986 19.5229 59.5655 18.5495 59.5655 16.9631V11.8135L38.3168 11.8135C37.0411 11.8135 36 10.78 36 9.50013C36 8.85718 36.2588 8.28033 36.68 7.86572C37.1012 7.4451 37.679 7.18672 38.3168 7.18672L59.5655 7.18672V2.03713C59.5655 0.456804 61.2986 -0.522639 62.6586 0.300574L75.0131 7.76357C76.325 8.55073 76.325 10.4495 75.0131 11.2427Z" fill="white"/>
</g>
<defs>
<clipPath id="clip0_102_4663">
<rect width="40" height="19" fill="white" transform="translate(40 19) rotate(-180)"/>
</clipPath>
<clipPath id="clip1_102_4663">
<rect width="40" height="19" fill="white" transform="translate(36)"/>
</clipPath>
</defs>
</svg>
