<svg width="18" height="28" viewBox="0 0 18 28" fill="none" xmlns="http://www.w3.org/2000/svg">
<g clip-path="url(#clip0_95_1910)">
<path d="M16.6494 25.0907C14.9859 24.9743 13.6615 24.2957 12.6153 23.3697C13.2673 22.8484 13.818 22.1845 14.2527 21.3924C15.5742 18.9811 15.38 16.0399 13.7484 13.7218C12.4878 11.928 10.5489 8.39849 10.5489 3.63136C10.5489 2.96448 10.5866 2.27431 10.6707 1.56084C10.7373 0.984246 10.4533 0.436768 9.94614 0.165941C9.43897 -0.107798 8.83037 -0.0408194 8.39276 0.331931C7.14079 1.4065 -3.70094 11.0864 1.31564 20.577C2.69223 23.1804 5.42223 24.7908 8.32031 24.7908C8.65649 24.7908 8.99267 24.7704 9.32884 24.7267C9.47085 24.7093 9.61286 24.686 9.75196 24.6598C11.2966 26.3895 13.4557 27.7874 16.4465 27.997C16.4813 27.9999 16.5161 27.9999 16.548 27.9999C17.3044 27.9999 17.9391 27.4146 17.9941 26.6458C18.0492 25.845 17.4464 25.149 16.6494 25.0907ZM3.61962 19.3481C0.602712 13.6403 5.03098 7.53942 7.95805 4.39433C8.14643 9.48763 10.2359 13.2676 11.6183 15.2361C12.6703 16.7271 12.8036 18.6026 11.969 20.1285C11.6879 20.641 11.343 21.0546 10.9286 21.372C9.47375 19.1093 8.99267 16.6456 8.98107 16.5757C8.83907 15.7865 8.08267 15.2624 7.29729 15.405C6.51191 15.5477 5.98735 16.3049 6.12936 17.097C6.16414 17.2979 6.61334 19.6771 7.99573 22.1612C6.16993 22.0476 4.48615 20.9963 3.61962 19.3481Z" fill="white"/>
</g>
<defs>
<clipPath id="clip0_95_1910">
<rect width="18" height="28" fill="white"/>
</clipPath>
</defs>
</svg>
