<svg width="31" height="31" viewBox="0 0 31 31" fill="none" xmlns="http://www.w3.org/2000/svg">
<g clip-path="url(#clip0_99_3843)">
<path d="M16.6378 30.8544C13.6566 31.2169 11.9054 30.8608 10.8793 30.2847C9.65896 29.5986 9.5133 27.8896 10.5718 26.9737C11.6173 26.0674 13.1484 24.5365 14.0191 22.6917C14.5176 22.7985 15.0323 22.8568 15.5631 22.8568C16.8482 22.8568 18.0555 22.5234 19.1043 21.9343C20.4217 24.4589 22.6552 30.1196 16.6378 30.8544Z" fill="white"/>
<path d="M20.425 4.02639C19.3633 4.94558 17.7998 6.51532 16.9388 8.40225C16.4953 8.31486 16.0325 8.26955 15.5631 8.26955C14.2586 8.26955 13.0318 8.61263 11.9734 9.21787C10.6721 6.77748 8.22177 0.896612 14.3622 0.148961C17.3434 -0.216773 19.0914 0.139251 20.1175 0.715363C21.341 1.40476 21.4867 3.11044 20.425 4.02639Z" fill="white"/>
<path d="M8.2671 15.5614C8.2671 16.8075 8.58108 17.9791 9.1346 19.0051C6.64864 20.3192 0.883684 22.6528 0.145666 16.5777C-0.216869 13.5968 0.139192 11.8458 0.715364 10.823C1.40159 9.59961 3.10745 9.45396 4.0235 10.5123C4.9525 11.5836 6.53211 13.1599 8.43542 14.0175C8.32537 14.516 8.2671 15.0306 8.2671 15.5614Z" fill="white"/>
<path d="M30.2846 20.0571C29.5984 21.2806 27.8925 21.4262 26.9733 20.3646C26.0734 19.3257 24.5553 17.811 22.7232 16.9371C22.8106 16.4904 22.8559 16.0308 22.8559 15.5615C22.8559 14.2183 22.4901 12.9625 21.8524 11.8815C24.3319 10.5707 30.1131 8.21771 30.8543 14.3025C31.2169 17.2834 30.8608 19.0311 30.2846 20.0571Z" fill="white"/>
<path d="M19.619 15.5615C19.619 15.7557 19.606 15.9435 19.5801 16.1312C19.3762 17.5876 18.3987 18.7949 17.078 19.3289C16.6087 19.5166 16.0972 19.6202 15.5631 19.6202C15.3074 19.6202 15.0582 19.5976 14.8154 19.5523C13.3847 19.2869 12.2226 18.2738 11.7403 16.9306C11.5882 16.5034 11.504 16.0406 11.504 15.5615C11.504 15.2994 11.5299 15.0437 11.5752 14.7977C11.8374 13.4222 12.7956 12.2958 14.0677 11.7909C14.5305 11.6064 15.0355 11.5061 15.5631 11.5061C15.7638 11.5061 15.9613 11.5191 16.1522 11.5482C17.5538 11.7521 18.7224 12.6713 19.2759 13.9238C19.496 14.4255 19.619 14.979 19.619 15.5615Z" fill="white"/>
</g>
<defs>
<clipPath id="clip0_99_3843">
<rect width="31" height="31" fill="white"/>
</clipPath>
</defs>
</svg>
