<svg width="16" height="23" viewBox="0 0 16 23" fill="none" xmlns="http://www.w3.org/2000/svg">
<g clip-path="url(#clip0_127_1377)">
<path d="M2.42917 0C2.61176 0 2.79633 0.0645408 2.94319 0.193622C3.26271 0.473299 3.2905 0.956378 3.00471 1.2693C2.99281 1.28299 1.54602 2.9415 1.54602 5.61896C1.54602 8.29643 2.99281 9.97253 3.0067 9.99014C3.28851 10.305 3.25875 10.7881 2.93922 11.0658C2.6197 11.3435 2.1295 11.3142 1.84768 10.9993C1.77227 10.9152 -0.00198364 8.89881 -0.00198364 5.61896C-0.00198364 2.33912 1.77624 0.33835 1.85165 0.254252C2.00447 0.0860544 2.21682 0 2.42917 0Z" fill="white"/>
<path d="M4.83454 2.39014C4.94369 2.39014 5.05086 2.4273 5.13818 2.50357C5.32672 2.66981 5.3426 2.9534 5.17391 3.1392C5.16597 3.14702 4.31258 4.12687 4.31258 5.7091C4.31258 7.29133 5.16795 8.28095 5.17589 8.29073C5.3426 8.47653 5.32474 8.76208 5.1362 8.92636C4.94766 9.09065 4.65791 9.07304 4.4912 8.88725C4.44754 8.83835 3.39966 7.64728 3.39966 5.7091C3.39966 3.77092 4.44952 2.58963 4.49318 2.54073C4.58249 2.44099 4.70951 2.39014 4.83454 2.39014Z" fill="white"/>
<path d="M13.5708 0C13.3882 0 13.2037 0.0645408 13.0568 0.193622C12.7373 0.473299 12.7095 0.956378 12.9953 1.2693C13.0072 1.28299 14.454 2.9415 14.454 5.61896C14.454 8.32772 13.0072 9.97253 12.9933 9.99014C12.7115 10.305 12.7413 10.7881 13.0608 11.0658C13.3803 11.3435 13.8705 11.3142 14.1523 10.9993C14.2277 10.9152 16.002 8.89881 16.002 5.61896C16.002 2.33912 14.2238 0.33835 14.1483 0.254252C13.9955 0.0860544 13.7832 0 13.5708 0Z" fill="white"/>
<path d="M11.1655 2.39014C11.0563 2.39014 10.9491 2.4273 10.8618 2.50357C10.6733 2.66981 10.6574 2.9534 10.8261 3.1392C10.834 3.14702 11.6874 4.12687 11.6874 5.7091C11.6874 7.30893 10.832 8.28095 10.8241 8.29073C10.6574 8.47653 10.6753 8.76208 10.8638 8.92636C11.0523 9.09065 11.3421 9.07304 11.5088 8.88725C11.5525 8.83835 12.6003 7.64728 12.6003 5.7091C12.6003 3.77092 11.5505 2.58963 11.5068 2.54073C11.4175 2.44099 11.2905 2.39014 11.1655 2.39014Z" fill="white"/>
<path d="M13.4279 22.1199L8.8137 6.81977C9.15902 6.57334 9.38328 6.17045 9.38328 5.71475C9.38328 4.95786 8.76011 4.3457 7.99207 4.3457C7.22402 4.3457 6.60085 4.95786 6.60085 5.71475C6.60085 6.16262 6.81717 6.55965 7.15257 6.80803L5.03895 13.8195C5.02903 13.8449 5.02109 13.8684 5.01514 13.8958L3.41752 19.194C3.41752 19.194 3.41355 19.1999 3.41355 19.2038L2.53436 22.1199C2.42521 22.4817 2.63359 22.863 3.00273 22.9706C3.06823 22.9902 3.13372 23 3.19921 23C3.49889 23 3.77674 22.8083 3.86604 22.511L4.59837 20.0858H11.3639L12.0963 22.511C12.1856 22.8083 12.4614 23 12.7611 23C12.8266 23 12.8921 22.9902 12.9596 22.9706C13.3267 22.863 13.5371 22.4817 13.4279 22.1199ZM7.98214 8.86552L9.05384 12.425H6.90846L7.98214 8.86552ZM5.01117 18.7168L6.04912 15.2746L10.0362 18.7168H5.01117ZM6.48376 13.8312L6.44009 13.7941H9.46664L10.5324 17.3262L6.48376 13.8312Z" fill="white"/>
</g>
<defs>
<clipPath id="clip0_127_1377">
<rect width="16" height="23" fill="white"/>
</clipPath>
</defs>
</svg>
