<svg width="32" height="30" viewBox="0 0 32 30" fill="none" xmlns="http://www.w3.org/2000/svg">
<g clip-path="url(#clip0_99_3835)">
<path d="M32 3.86935C32 4.29859 31.9294 4.7341 31.7819 5.16021L24.109 27.2145C23.7159 28.3425 22.862 29.1696 21.8391 29.5519C21.3077 29.8401 20.6996 30.003 20.0576 30.003H3.79036C1.6986 30.003 0 28.2735 0 26.1367C0 25.0683 0.423882 24.1033 1.10885 23.4046C1.79382 22.7059 2.74294 22.2735 3.78729 22.2735H17.7846L24.6404 2.57535C25.3408 0.563865 27.5062 -0.488877 29.4782 0.225483C31.0324 0.789452 32.0031 2.2777 32.0031 3.86935H32Z" fill="#FFFFFF"/>
<path d="M5.00365 18.6079C4.81628 18.6079 4.62891 18.539 4.48147 18.398C4.17124 18.1035 4.15281 17.6084 4.44154 17.292C4.63505 17.0758 6.29679 15.1082 4.46919 13.3035C3.60299 12.4481 3.16068 11.48 3.15454 10.4272C3.14225 8.66011 4.40775 7.35045 4.46304 7.29406C4.76406 6.98701 5.24937 6.99014 5.55039 7.29406C5.84834 7.59797 5.84834 8.09301 5.55039 8.40006C5.53196 8.41886 4.67806 9.32434 4.69034 10.4241C4.69649 11.0444 4.976 11.6178 5.53811 12.1755C7.89096 14.5035 6.58552 17.2356 5.56575 18.3541C5.41524 18.5202 5.20944 18.6048 5.00365 18.6048V18.6079Z" fill="#FFFFFF"/>
<path d="M9.67863 18.6079C9.49127 18.6079 9.3039 18.539 9.15646 18.398C8.84623 18.1035 8.8278 17.6084 9.11653 17.292C9.31004 17.0758 10.9718 15.1082 9.14417 13.3035C8.27798 12.4481 7.83567 11.48 7.82953 10.4272C7.81724 8.66011 9.08274 7.35045 9.13803 7.29406C9.43905 6.98701 9.92436 6.99014 10.2254 7.29406C10.5233 7.59797 10.5233 8.09301 10.2254 8.40006C10.207 8.41886 9.35304 9.32434 9.36533 10.4241C9.37147 11.0444 9.65099 11.6178 10.2131 12.1755C12.5659 14.5035 11.2605 17.2356 10.2407 18.3541C10.0902 18.5202 9.88443 18.6048 9.67863 18.6048V18.6079Z" fill="#FFFFFF"/>
<path d="M14.3813 18.6079C14.1939 18.6079 14.0065 18.539 13.8591 18.398C13.5489 18.1035 13.5304 17.6084 13.8192 17.292C14.0127 17.0758 15.6744 15.1082 13.8468 13.3035C12.9806 12.4481 12.5383 11.48 12.5322 10.4272C12.5199 8.66011 13.7854 7.35045 13.8407 7.29406C14.1417 6.98701 14.627 6.99014 14.928 7.29406C15.226 7.59797 15.226 8.09301 14.928 8.40006C14.9157 8.41259 14.0557 9.32121 14.068 10.4241C14.0741 11.0444 14.3536 11.6178 14.9157 12.1755C17.2686 14.5035 15.9631 17.2356 14.9434 18.3541C14.7929 18.5202 14.5871 18.6048 14.3813 18.6048V18.6079Z" fill="#FFFFFF"/>
</g>
<defs>
<clipPath id="clip0_99_3835">
<rect width="32" height="30" fill="#FFFFFF"/>
</clipPath>
</defs>
</svg>
