<svg width="24" height="22" viewBox="0 0 24 22" fill="none" xmlns="http://www.w3.org/2000/svg">
<g clip-path="url(#clip0_94_1788)">
<path d="M20.4283 12.107C20.8531 12.4373 21.1001 12.9503 21.1001 13.4938V20.3649C21.1001 21.2668 20.3798 22.0001 19.4886 22.0001H14.3954V13.4376C14.3954 13.0112 14.056 12.6669 13.6358 12.6669H10.3665C9.94632 12.6669 9.60692 13.0112 9.60692 13.4376V22.0001H4.5137C3.62482 22.0001 2.90216 21.2668 2.90216 20.3649V13.4938C2.90216 12.9503 3.15151 12.4373 3.57402 12.107L12.0012 5.52173L20.4283 12.107Z" fill="white"/>
<path d="M23.7691 10.1649C23.5429 10.4694 23.1965 10.6311 22.8456 10.6311C22.6032 10.6311 22.3607 10.5538 22.153 10.3945L12.0012 2.63789L1.84935 10.3945C1.64155 10.5538 1.39682 10.6311 1.1544 10.6311C0.805767 10.6311 0.459447 10.4694 0.233184 10.1649C-0.150077 9.64716 -0.0484897 8.9139 0.459447 8.52268L11.2693 0.264771C11.3408 0.206204 11.4193 0.154665 11.5024 0.117183C11.5394 0.0984414 11.5763 0.0820428 11.6133 0.0679868H11.6179C11.6594 0.0515881 11.701 0.0398747 11.7426 0.0305041C11.7772 0.0211334 11.8141 0.0141054 11.8511 0.0117627C11.8695 0.00707737 11.888 0.00473471 11.9065 0.00473471C11.9688 4.93689e-05 12.0335 4.93689e-05 12.0958 0.00473471C12.1143 0.00473471 12.1328 0.00707737 12.1512 0.0117627C12.1882 0.0141054 12.2251 0.0211334 12.2597 0.0305041C12.3013 0.0398747 12.3429 0.0515881 12.3844 0.0679868H12.389C12.426 0.0820428 12.4652 0.0984414 12.4999 0.117183C12.5668 0.147637 12.6338 0.189806 12.6961 0.236659L12.733 0.264771L23.5405 8.52268C24.0508 8.9139 24.1524 9.64716 23.7691 10.1649Z" fill="white"/>
</g>
<defs>
<clipPath id="clip0_94_1788">
<rect width="24" height="22" fill="white"/>
</clipPath>
</defs>
</svg>
