<svg width="40" height="36" viewBox="0 0 40 36" fill="none" xmlns="http://www.w3.org/2000/svg">
<g clip-path="url(#clip0_661_912)">
<path d="M34.0471 19.8113C34.7552 20.3518 35.1669 21.1914 35.1669 22.0807V33.3242C35.1669 34.8001 33.9663 36 32.481 36H23.9923V21.9887C23.9923 21.291 23.4267 20.7275 22.7263 20.7275H17.2775C16.5772 20.7275 16.0115 21.291 16.0115 21.9887V36H7.52285C6.04137 36 4.83694 34.8001 4.83694 33.3242V22.0807C4.83694 21.1914 5.25253 20.3518 5.95671 19.8113L20.0019 9.03546L34.0471 19.8113Z" fill="white"/>
<path d="M39.6152 16.6334C39.2381 17.1318 38.6609 17.3963 38.076 17.3963C37.672 17.3963 37.268 17.2698 36.9216 17.0091L20.002 4.31654L3.08229 17.0091C2.73597 17.2698 2.32808 17.3963 1.92404 17.3963C1.34299 17.3963 0.765791 17.1318 0.388686 16.6334C-0.250082 15.7862 -0.0807703 14.5864 0.765791 13.9462L18.7821 0.433248C18.9014 0.337411 19.0323 0.253075 19.1708 0.19174C19.2324 0.161072 19.2939 0.134238 19.3555 0.111237H19.3632C19.4325 0.084403 19.5017 0.0652357 19.571 0.0499019C19.6287 0.034568 19.6903 0.0230677 19.7518 0.0192342C19.7826 0.0115673 19.8134 0.00773383 19.8442 0.00773383C19.9481 6.6914e-05 20.0558 6.6914e-05 20.1597 0.00773383C20.1905 0.00773383 20.2213 0.0115673 20.2521 0.0192342C20.3137 0.0230677 20.3752 0.034568 20.4329 0.0499019C20.5022 0.0652357 20.5715 0.084403 20.6407 0.111237H20.6484C20.71 0.134238 20.7754 0.161072 20.8331 0.19174C20.9447 0.241575 21.0563 0.310577 21.1602 0.387246L21.2218 0.433248L39.2343 13.9462C40.0847 14.5864 40.254 15.7862 39.6152 16.6334Z" fill="white"/>
</g>
<defs>
<clipPath id="clip0_661_912">
<rect width="40" height="36" fill="white"/>
</clipPath>
</defs>
</svg>
