<svg width="33" height="41" viewBox="0 0 33 41" fill="none" xmlns="http://www.w3.org/2000/svg">
<path d="M29.2825 17.3384H28.4023V12.2323C28.4023 11.5556 28.3482 10.8939 28.245 10.2475C27.3205 4.44444 22.3983 0 16.4926 0C10.5869 0 5.66473 4.44444 4.74028 10.2475C4.63701 10.8939 4.58292 11.5556 4.58292 12.2323V17.3384H3.71256C1.66205 17.3384 0 19.0455 0 21.1566V37.1818C0 39.2929 1.66205 41 3.71256 41H29.2825C31.333 41 33 39.2929 33 37.1818V21.1566C33 19.0455 31.333 17.3384 29.2825 17.3384ZM9.50022 12.399H9.50514C9.50022 12.3434 9.50022 12.2879 9.50022 12.2323C9.50022 10.3485 10.2083 8.63131 11.3737 7.34848C12.6473 5.93434 14.4716 5.0505 16.4926 5.0505C18.5136 5.0505 20.338 5.93434 21.6115 7.34848C22.7769 8.63131 23.485 10.3485 23.485 12.2323C23.485 12.2879 23.485 12.3434 23.485 12.399V17.3384H9.50022V12.399Z" fill="white"/>
</svg>
