<svg width="39" height="39" viewBox="0 0 39 39" fill="none" xmlns="http://www.w3.org/2000/svg">
<g clip-path="url(#clip0_661_894)">
<path d="M39 2.0705V25.4589C39 25.6163 38.9835 25.7736 38.9462 25.9227C38.9504 26.0386 38.9545 26.1546 38.9545 26.2705C38.9545 30.395 35.6162 33.7368 31.4962 33.7368C27.3761 33.7368 24.0379 30.395 24.0379 26.2705C24.0379 22.1461 27.3761 18.8043 31.4962 18.8043C32.7082 18.8043 33.8541 19.0942 34.8634 19.6077V4.64621L15.02 8.99841V30.718C15.02 30.8753 15.0035 31.0286 14.9663 31.1776C14.9704 31.2853 14.9745 31.393 14.9745 31.5048C14.9745 35.6458 11.6239 39 7.48727 39C3.35066 39 0 35.6458 0 31.5048C0 27.3638 3.35479 24.0096 7.48727 24.0096C8.71171 24.0096 9.86583 24.3036 10.8834 24.8212V7.32958C10.8834 7.25918 10.8876 7.18879 10.8958 7.12253C10.9 7.05628 10.9083 6.99416 10.9207 6.93204C10.9248 6.91962 10.9289 6.9072 10.9331 6.89063C10.9413 6.8368 10.9579 6.78297 10.9744 6.72914C10.9868 6.69187 10.9993 6.65046 11.0158 6.61319C11.0282 6.57592 11.0406 6.53451 11.0613 6.49724C11.0861 6.44341 11.1109 6.38543 11.144 6.32746C11.2061 6.21565 11.2764 6.11213 11.3591 6.01688C11.4005 5.96719 11.446 5.9175 11.4915 5.87195C11.537 5.8264 11.5867 5.78084 11.6363 5.73943C11.6901 5.69388 11.7397 5.65661 11.7976 5.61935C11.839 5.58622 11.8845 5.56137 11.9341 5.53238C12.1079 5.42886 12.3023 5.35432 12.5091 5.30877H12.5339L36.4229 0.0662561L36.4891 0.0496921C36.5511 0.0372691 36.609 0.024846 36.6711 0.020705C36.758 0.00828201 36.849 0 36.9358 0C37.0062 0 37.0765 0.00414101 37.1427 0.012423C37.2088 0.016564 37.2709 0.024846 37.3329 0.0372691C37.6721 0.107666 37.9865 0.256742 38.2513 0.476216C38.3009 0.513485 38.3464 0.554895 38.3878 0.596305C38.3919 0.604587 38.4002 0.612869 38.4126 0.621151C38.454 0.662561 38.4912 0.708112 38.5284 0.753663C38.5698 0.803355 38.6112 0.857188 38.6484 0.911021C38.6856 0.968996 38.7187 1.02283 38.7518 1.08494C38.7808 1.14292 38.8097 1.20089 38.8387 1.26301C38.8883 1.37896 38.9255 1.49904 38.9545 1.62742C38.9545 1.6357 38.9586 1.64398 38.9586 1.65226C38.9835 1.78891 39 1.92971 39 2.0705Z" fill="white"/>
</g>
<defs>
<clipPath id="clip0_661_894">
<rect width="39" height="39" fill="white"/>
</clipPath>
</defs>
</svg>
