<svg xmlns="http://www.w3.org/2000/svg" width="1em" height="1em" viewBox="0 0 24 24"><g fill="none"><path d="M24 0v24H0V0zM12.594 23.258l-.012.002l-.071.035l-.02.004l-.014-.004l-.071-.036c-.01-.003-.019 0-.024.006l-.004.01l-.017.428l.005.02l.01.013l.104.074l.015.004l.012-.004l.104-.074l.012-.016l.004-.017l-.017-.427c-.002-.01-.009-.017-.016-.018m.264-.113l-.014.002l-.184.093l-.01.01l-.003.011l.018.43l.005.012l.008.008l.201.092c.012.004.023 0 .029-.008l.004-.014l-.034-.614c-.003-.012-.01-.02-.02-.022m-.715.002a.023.023 0 0 0-.027.006l-.006.014l-.034.614c0 .012.007.02.017.024l.015-.002l.201-.093l.01-.008l.003-.011l.018-.43l-.003-.012l-.01-.01z"/><path fill="currentColor" d="M6.301 5.5a4.5 4.5 0 0 1 3.732 1.985l.127.2l4.252 7.087a1.5 1.5 0 0 0 1.13.72l.157.008h.741l.02-.312l.011-.14c.056-.719.749-1.17 1.331-.865l.314.168l.368.209a20.468 20.468 0 0 1 1.564 1.005l.385.28l.323.245l.137.107c.489.39.47 1.195-.05 1.606l-.136.107l-.32.242l-.38.275l-.438.301a21.82 21.82 0 0 1-.714.457l-.426.255l-.375.211l-.316.17c-.577.3-1.207-.085-1.261-.756l-.04-.565H15.7a4.5 4.5 0 0 1-3.732-1.985l-.127-.2l-4.252-7.087a1.5 1.5 0 0 0-1.13-.72L6.301 8.5H4a1.5 1.5 0 0 1-.144-2.993L4 5.5zm1.007 9.612L7.42 15a1.5 1.5 0 1 1 2.237 2a4.5 4.5 0 0 1-3.113 1.494l-.242.006H4a1.5 1.5 0 0 1-.144-2.993L4 15.5h2.301a1.5 1.5 0 0 0 1.007-.388m10.494-10.93l.314.17l.368.208c.132.076.27.159.417.248l.459.29c.25.163.48.32.688.467l.385.28l.323.245l.137.107c.489.39.47 1.195-.05 1.606l-.136.107l-.32.242l-.38.275l-.438.301a21.846 21.846 0 0 1-.714.457l-.426.255l-.375.211l-.316.17c-.577.3-1.207-.085-1.261-.756l-.04-.565H15.7a1.5 1.5 0 0 0-1.007.388L14.58 9a1.5 1.5 0 1 1-2.237-2a4.5 4.5 0 0 1 3.113-1.494l.242-.006h.741l.031-.452c.056-.719.749-1.17 1.331-.865Z"/></g></svg>