<svg width="15" height="15" viewBox="0 0 15 15" fill="none" xmlns="http://www.w3.org/2000/svg">
<g clip-path="url(#clip0_95_2674)">
<path d="M15 7.5C15 8.14769 14.4744 8.67334 13.8268 8.67334H8.67198V13.8267C8.67198 14.4743 8.14641 15 7.49883 15C6.85124 15 6.32567 14.4743 6.32567 13.8267V8.67334H1.17316C0.525575 8.67334 0 8.14769 0 7.5C0 6.85232 0.525575 6.32666 1.17316 6.32666H6.32567V1.17334C6.32567 0.525657 6.85124 0 7.49883 0C8.14641 0 8.67198 0.525657 8.67198 1.17334V6.32666H13.8268C14.4744 6.32666 15 6.85232 15 7.5Z" fill="white"/>
</g>
<defs>
<clipPath id="clip0_95_2674">
<rect width="15" height="15" fill="white"/>
</clipPath>
</defs>
</svg>
