<svg width="22" height="25" viewBox="0 0 22 25" fill="none" xmlns="http://www.w3.org/2000/svg">
<g clip-path="url(#clip0_80_199)">
<path d="M15.1975 4.92154C14.8573 5.51809 15.0248 6.2847 15.5943 6.66408C18.0473 8.28889 19.6165 11.1774 19.4052 14.4113C19.1192 18.7729 15.5556 22.2528 11.2525 22.381C6.49075 22.5223 2.57671 18.6316 2.57671 13.8279C2.57671 10.8242 4.10728 8.179 6.42117 6.65362C6.98805 6.27947 7.14781 5.50762 6.80768 4.91631C6.43406 4.26743 5.60178 4.0712 4.98337 4.48198C1.76505 6.62222 -0.28344 10.4344 0.030919 14.6887C0.43804 20.1518 4.78238 24.5605 10.1626 24.966C16.6044 25.4527 21.9974 20.2643 21.9974 13.8253C21.9974 9.92677 20.0211 6.48878 17.0295 4.49245C16.4059 4.07643 15.5711 4.26482 15.1949 4.91893L15.1975 4.92154Z" fill="#CB2020"/>
<path d="M12.2884 1.30822V9.62585C12.2884 10.348 11.7112 10.9341 11 10.9341C10.2888 10.9341 9.71164 10.348 9.71164 9.62585V1.30822C9.71164 0.586081 10.2888 0 11 0C11.7112 0 12.2884 0.586081 12.2884 1.30822Z" fill="#CB2020"/>
</g>
<defs>
<clipPath id="clip0_80_199">
<rect width="22" height="25" fill="white"/>
</clipPath>
</defs>
</svg>
