<svg width="70" height="64" viewBox="0 0 70 64" fill="none" xmlns="http://www.w3.org/2000/svg">
<g clip-path="url(#clip0_102_4664)">
<path d="M70 8.25481C70 9.17053 69.8455 10.0996 69.5229 11.0086L52.7452 58.0578C51.8852 60.4708 50.0106 62.2354 47.7664 63.0508C46.604 63.6591 45.287 64.0067 43.8827 64.0067H8.29142C3.71568 64.0067 0 60.3171 0 55.7585C0 53.4792 0.927241 51.4206 2.42561 49.93C3.92398 48.4395 6.00019 47.5171 8.2847 47.5171H38.9105L53.9009 5.49429C55.4329 1.20311 60.1699 -1.04274 64.4836 0.481231C67.8835 1.68436 70.0067 4.8593 70.0067 8.25481H70Z" fill="white"/>
</g>
<defs>
<clipPath id="clip0_102_4664">
<rect width="70" height="64" fill="white"/>
</clipPath>
</defs>
</svg>
