<svg width="21" height="28" viewBox="0 0 21 28" fill="none" xmlns="http://www.w3.org/2000/svg">
<g clip-path="url(#clip0_94_1793)">
<path d="M1.47783 0C2.2936 0 2.95567 0.65184 2.95567 1.455V3.05841H21V17.7917H2.95567V26.545C2.95567 27.3511 2.2936 28 1.47783 28C0.662067 28 0 27.3511 0 26.545V1.455C0 0.65184 0.659113 0 1.47783 0ZM2.95567 8.93951H5.9734V11.9106H2.95567V14.8817H5.9734V11.9106H8.99113V14.8817H12.0089V11.9106H15.0266V14.8817H18.0443V11.9106H15.0266V8.93951H18.0443V5.96841H15.0266V8.93951H12.0089V5.96841H8.99113V8.93951H5.9734V5.96841H2.95567V8.93951Z" fill="#FFFFFF"/>
<path d="M8.99118 8.93945H12.0089V11.9106H8.99118V8.93945Z" fill="#FFFFFF"/>
</g>
<defs>
<clipPath id="clip0_94_1793">
<rect width="21" height="28" fill="#00A3FF" transform="matrix(-1 0 0 1 21 0)"/>
</clipPath>
</defs>
</svg>
