<svg width="23" height="22" viewBox="0 0 23 22" fill="none" xmlns="http://www.w3.org/2000/svg">
<g clip-path="url(#clip0_40_25)">
<path d="M23 11.185C23 15.7996 20.2079 18.7091 18.5321 20.0397V21.0325C18.5321 21.545 18.1155 21.9609 17.6022 21.9609H17.1602C16.6469 21.9609 16.2303 21.545 16.2303 21.0325H14.6328V21.0716C14.6328 21.584 14.2162 22 13.7029 22H13.2609C12.7476 22 12.331 21.584 12.331 21.0716V21.0325H10.7197C10.7197 21.545 10.303 21.9609 9.78973 21.9609H9.34778C8.83447 21.9609 8.41783 21.545 8.41783 21.0325H6.76741C6.76741 21.545 6.35078 21.9609 5.83747 21.9609H5.39552C4.88221 21.9609 4.46557 21.545 4.46557 21.0325V20.0374C2.78983 18.7045 0 15.7973 0 11.185C0 6.05787 2.6195 3.17602 3.74049 2.18093V1.14907C3.74049 0.514781 4.2561 0 4.89141 0C5.52672 0 6.04233 0.514781 6.04233 1.14907V3.3231L5.54974 3.66552C5.42314 3.75744 2.30184 6.04638 2.30184 11.185C2.30184 15.6434 5.63721 18.1231 6.58097 18.7344H16.419C17.3582 18.1254 20.6982 15.648 20.6982 11.185C20.6982 6.04638 17.5769 3.75744 17.4434 3.66322L16.9623 3.3185L16.9577 2.72328V1.14907C16.9577 0.514781 17.4733 0 18.1086 0C18.7439 0 19.2595 0.514781 19.2595 1.14907V2.18093C20.3805 3.17602 23 6.05787 23 11.185Z" fill="#FFB800"/>
<path d="M11.5092 16.3834C12.1703 16.3834 12.7062 15.8483 12.7062 15.1883C12.7062 14.5283 12.1703 13.9933 11.5092 13.9933C10.8482 13.9933 10.3123 14.5283 10.3123 15.1883C10.3123 15.8483 10.8482 16.3834 11.5092 16.3834Z" fill="#FFB800"/>
<path d="M11.5092 0H11.5069C10.8636 0 10.3422 0.520627 10.3422 1.16285V10.8081C10.3422 11.4503 10.8636 11.971 11.5069 11.971H11.5092C12.1525 11.971 12.6739 11.4503 12.6739 10.8081V1.16285C12.6739 0.520627 12.1525 0 11.5092 0Z" fill="#FFB800"/>
</g>
<defs>
<clipPath id="clip0_40_25">
<rect width="23" height="22" fill="white"/>
</clipPath>
</defs>
</svg>
