<svg width="31" height="27" viewBox="0 0 31 27" fill="none" xmlns="http://www.w3.org/2000/svg">
<g clip-path="url(#clip0_62_208)">
<path d="M19.8668 4.3293V22.6706C19.8668 24.6159 17.7699 25.8152 16.1305 24.806L7.92655 19.7709H2.71664C1.21781 19.7709 0 18.5387 0 17.0139V9.92017C0 8.39539 1.21781 7.16313 2.71664 7.16313H8.02743L16.1305 2.19021C17.7699 1.18466 19.8668 2.38401 19.8668 4.3293Z" fill="white"/>
<path d="M25.3433 26.9999C24.9182 26.9999 24.4894 26.8463 24.1435 26.5355C23.4013 25.8627 23.3365 24.7072 23.9994 23.954C24.0282 23.9211 27.397 19.9427 27.397 13.5218C27.397 7.10091 24.0282 3.0787 23.9922 3.03847C23.3329 2.28157 23.4049 1.1261 24.1507 0.456947C24.8965 -0.212203 26.0351 -0.139072 26.6944 0.617835C26.871 0.818946 31 5.65657 31 13.5218C31 21.3871 26.8638 26.1881 26.6872 26.3892C26.3305 26.7951 25.8369 26.9999 25.3433 26.9999Z" fill="white"/>
</g>
<defs>
<clipPath id="clip0_62_208">
<rect width="31" height="27" fill="white"/>
</clipPath>
</defs>
</svg>
