<svg width="33" height="28" viewBox="0 0 33 28" fill="none" xmlns="http://www.w3.org/2000/svg">
<g clip-path="url(#clip0_102_4628)">
<path d="M32.4847 22.7344L19.5236 1.67438C18.1473 -0.558942 14.8527 -0.558942 13.4794 1.67438L0.515359 22.7344C-0.908545 25.0467 0.786437 28.0001 3.53892 28.0001H29.4641C32.2136 28.0001 33.9086 25.0467 32.4847 22.7344ZM14.9927 7.98507C14.9927 7.1655 15.6689 6.50399 16.5 6.50399C16.9171 6.50399 17.2954 6.67083 17.5665 6.93719C17.8375 7.20355 18.0073 7.57528 18.0073 7.98507V18.4931C18.0073 19.3127 17.3341 19.9771 16.5 19.9771C15.6659 19.9771 14.9927 19.3127 14.9927 18.4931V7.98507ZM16.5 24.5462C15.6451 24.5462 14.951 23.8642 14.951 23.0212C14.951 22.1783 15.6451 21.4992 16.5 21.4992C17.3549 21.4992 18.052 22.1812 18.052 23.0212C18.052 23.8613 17.3579 24.5462 16.5 24.5462Z" fill="#FFB800"/>
</g>
<defs>
<clipPath id="clip0_102_4628">
<rect width="33" height="28" fill="white"/>
</clipPath>
</defs>
</svg>
