<svg width="48" height="41" viewBox="0 0 48 41" fill="none" xmlns="http://www.w3.org/2000/svg">
<g clip-path="url(#clip0_88_228)">
<path d="M47.2503 33.2894L28.3961 2.45157C26.3985 -0.818656 21.6015 -0.818656 19.6039 2.45157L0.749671 33.2894C-1.32165 36.6754 1.144 41 5.14364 41H42.8564C46.856 41 49.3217 36.6754 47.2503 33.2894ZM38.1417 37.2668H9.85827C6.85963 37.2668 5.01364 34.0266 6.56496 31.4893L20.7045 8.36198C22.2039 5.91038 25.7962 5.91038 27.2955 8.36198L41.4351 31.4893C42.9864 34.0266 41.1404 37.2668 38.1417 37.2668Z" fill="#CB2020"/>
<path d="M35.0998 29.3549L26.0995 14.6325C25.6228 13.8524 24.8125 13.4624 24.0022 13.4624C23.1918 13.4624 22.3772 13.8524 21.9005 14.6325L12.9002 29.3549C11.9123 30.9708 13.0866 33.0323 14.9976 33.0323H33.0024C34.9134 33.0323 36.0878 30.9708 35.0998 29.3549ZM18.3342 28.7463L24.0022 19.48L29.6658 28.7463H18.3342Z" fill="#CB2020"/>
</g>
<defs>
<clipPath id="clip0_88_228">
<rect width="48" height="41" fill="white"/>
</clipPath>
</defs>
</svg>
