<svg width="40" height="40" viewBox="0 0 40 40" fill="none" xmlns="http://www.w3.org/2000/svg">
<g clip-path="url(#clip0_127_1236)">
<path d="M20 40C31.0457 40 40 31.0457 40 20C40 8.95431 31.0457 0 20 0C8.95431 0 0 8.95431 0 20C0 31.0457 8.95431 40 20 40Z" fill="#8A8A8A"/>
<g clip-path="url(#clip1_127_1236)">
<path d="M14.4292 8C14.6118 8 14.7963 8.06454 14.9432 8.19362C15.2627 8.4733 15.2905 8.95638 15.0047 9.2693C14.9928 9.28299 13.546 10.9415 13.546 13.619C13.546 16.2964 14.9928 17.9725 15.0067 17.9901C15.2885 18.305 15.2587 18.7881 14.9392 19.0658C14.6197 19.3435 14.1295 19.3142 13.8477 18.9993C13.7723 18.9152 11.998 16.8988 11.998 13.619C11.998 10.3391 13.7762 8.33835 13.8517 8.25425C14.0045 8.08605 14.2168 8 14.4292 8Z" fill="white"/>
<path d="M16.8345 10.3901C16.9437 10.3901 17.0509 10.4273 17.1382 10.5036C17.3267 10.6698 17.3426 10.9534 17.1739 11.1392C17.166 11.147 16.3126 12.1269 16.3126 13.7091C16.3126 15.2913 17.168 16.281 17.1759 16.2907C17.3426 16.4765 17.3247 16.7621 17.1362 16.9264C16.9477 17.0906 16.6579 17.073 16.4912 16.8872C16.4475 16.8384 15.3997 15.6473 15.3997 13.7091C15.3997 11.7709 16.4495 10.5896 16.4932 10.5407C16.5825 10.441 16.7095 10.3901 16.8345 10.3901Z" fill="white"/>
<path d="M25.5708 8C25.3882 8 25.2037 8.06454 25.0568 8.19362C24.7373 8.4733 24.7095 8.95638 24.9953 9.2693C25.0072 9.28299 26.454 10.9415 26.454 13.619C26.454 16.3277 25.0072 17.9725 24.9933 17.9901C24.7115 18.305 24.7413 18.7881 25.0608 19.0658C25.3803 19.3435 25.8705 19.3142 26.1523 18.9993C26.2277 18.9152 28.002 16.8988 28.002 13.619C28.002 10.3391 26.2238 8.33835 26.1483 8.25425C25.9955 8.08605 25.7832 8 25.5708 8Z" fill="white"/>
<path d="M23.1655 10.3901C23.0563 10.3901 22.9491 10.4273 22.8618 10.5036C22.6733 10.6698 22.6574 10.9534 22.8261 11.1392C22.834 11.147 23.6874 12.1269 23.6874 13.7091C23.6874 15.3089 22.832 16.281 22.8241 16.2907C22.6574 16.4765 22.6753 16.7621 22.8638 16.9264C23.0523 17.0906 23.3421 17.073 23.5088 16.8872C23.5525 16.8384 24.6003 15.6473 24.6003 13.7091C24.6003 11.7709 23.5505 10.5896 23.5068 10.5407C23.4175 10.441 23.2905 10.3901 23.1655 10.3901Z" fill="white"/>
<path d="M25.4279 30.1199L20.8137 14.8198C21.159 14.5733 21.3833 14.1704 21.3833 13.7148C21.3833 12.9579 20.7601 12.3457 19.9921 12.3457C19.224 12.3457 18.6008 12.9579 18.6008 13.7148C18.6008 14.1626 18.8172 14.5596 19.1526 14.808L17.039 21.8195C17.029 21.8449 17.0211 21.8684 17.0151 21.8958L15.4175 27.194C15.4175 27.194 15.4136 27.1999 15.4136 27.2038L14.5344 30.1199C14.4252 30.4817 14.6336 30.863 15.0027 30.9706C15.0682 30.9902 15.1337 31 15.1992 31C15.4989 31 15.7767 30.8083 15.866 30.511L16.5984 28.0858H23.3639L24.0963 30.511C24.1856 30.8083 24.4614 31 24.7611 31C24.8266 31 24.8921 30.9902 24.9596 30.9706C25.3267 30.863 25.5371 30.4817 25.4279 30.1199ZM19.9821 16.8655L21.0538 20.425H18.9085L19.9821 16.8655ZM17.0112 26.7168L18.0491 23.2746L22.0362 26.7168H17.0112ZM18.4838 21.8312L18.4401 21.7941H21.4666L22.5324 25.3262L18.4838 21.8312Z" fill="white"/>
</g>
</g>
<defs>
<clipPath id="clip0_127_1236">
<rect width="40" height="40" fill="white"/>
</clipPath>
<clipPath id="clip1_127_1236">
<rect width="16" height="23" fill="white" transform="translate(12 8)"/>
</clipPath>
</defs>
</svg>
